<svg width="26" height="9" viewBox="0 0 26 9" fill="none" xmlns="http://www.w3.org/2000/svg">
<path d="M7.87127 3.52161L7.51667 3.62938V4V5.91704C7.51667 6.10075 7.40207 6.28276 7.19775 6.37855L7.19686 6.37897C6.09902 6.89631 5.09099 7.55632 4.1954 8.3327L4.1953 8.33258L4.18607 8.34099C4.08108 8.4367 3.93508 8.5 3.76458 8.5C3.59247 8.5 3.44705 8.43597 3.34779 8.34031L3.34783 8.34028L3.34284 8.3356L0.661585 5.82149C0.55443 5.72102 0.5 5.59615 0.5 5.46501C0.5 5.33548 0.553104 5.21207 0.657669 5.11224C3.86465 2.25566 8.21292 0.5 13 0.5C17.7885 0.5 22.1379 2.25671 25.3452 5.1148C25.4435 5.20537 25.5 5.33083 25.5 5.46501C25.5 5.5972 25.445 5.71914 25.3434 5.81178L25.3434 5.81174L25.3384 5.81641L22.6572 8.33052C22.5516 8.42947 22.402 8.49492 22.2354 8.49492C22.0691 8.49492 21.918 8.43076 21.8139 8.33591L21.814 8.3358L21.8046 8.32762C20.909 7.55124 19.901 6.89123 18.8031 6.37389L18.8022 6.37347C18.5979 6.27768 18.4833 6.09567 18.4833 5.91196V3.99492V3.62315L18.1273 3.5161C16.5099 3.02974 14.7876 2.76862 13 2.76862C11.2124 2.76862 9.48962 3.02974 7.87127 3.52161Z" stroke="#F39D36"/>
</svg>
