<svg width="25" height="27" viewBox="0 0 25 27" fill="none" xmlns="http://www.w3.org/2000/svg">
<path d="M12.0947 10.9047C11.2799 10.915 10.4804 10.6829 9.79789 10.2378C9.11535 9.79262 8.58059 9.15459 8.26157 8.40477C7.94255 7.65496 7.85369 6.82722 8.00628 6.02677C8.15886 5.22632 8.54601 4.48932 9.1185 3.90945C9.69099 3.32958 10.423 2.93303 11.2214 2.77021C12.0198 2.60739 12.8486 2.68565 13.6025 2.99504C14.3563 3.30443 15.0011 3.83098 15.455 4.50776C15.9088 5.18454 16.1512 5.98098 16.1512 6.79584C16.1568 7.87822 15.7329 8.91863 14.9724 9.68889C14.212 10.4591 13.1771 10.8964 12.0947 10.9047ZM12.0947 3.73252C11.4867 3.72214 10.8894 3.89294 10.3788 4.22318C9.86821 4.55341 9.46745 5.02813 9.22756 5.58688C8.98767 6.14563 8.91949 6.76314 9.03172 7.36077C9.14395 7.9584 9.4315 8.50911 9.85776 8.94276C10.284 9.37642 10.8297 9.67341 11.4253 9.79591C12.0209 9.9184 12.6395 9.86087 13.2023 9.63063C13.7651 9.40039 14.2466 9.00786 14.5856 8.50303C14.9246 7.9982 15.1056 7.40391 15.1057 6.79584C15.1099 6.3968 15.0352 6.00087 14.886 5.63075C14.7368 5.26063 14.516 4.92361 14.2362 4.63901C13.9565 4.35442 13.6233 4.12784 13.2558 3.97229C12.8883 3.81673 12.4937 3.73525 12.0947 3.73252Z" fill="#F39D36"/>
<path d="M11.8438 23.3669C11.8438 23.3669 11.8438 23.3669 11.7811 23.3042C11.7184 23.2415 11.8125 23.3565 11.8438 23.3669Z" fill="#B70000"/>
<path d="M12.4395 23.3043C12.4395 23.3043 12.4395 23.3565 12.3767 23.367C12.314 23.3774 12.4185 23.3252 12.4395 23.3043Z" fill="#B70000"/>
<path d="M12.3769 23.367C12.303 23.4085 12.221 23.4335 12.1365 23.4402C12.221 23.4335 12.303 23.4085 12.3769 23.367Z" fill="#B70000"/>
<path d="M12.0944 23.4506C12.0008 23.45 11.9096 23.4208 11.833 23.367C11.9096 23.4208 12.0008 23.45 12.0944 23.4506Z" fill="#B70000"/>
<path d="M23.9402 25.2279L16.8621 18.9549C16.8165 18.9106 16.7625 18.8757 16.7032 18.8524C16.644 18.8291 16.5807 18.8177 16.5171 18.819H14.9279C17.0189 14.8461 19.6954 9.40951 19.6954 7.69489C19.6848 5.67357 18.8835 3.73667 17.4631 2.29859C16.0426 0.860519 14.1157 0.0354823 12.0946 0C10.0735 0.0380787 8.147 0.863613 6.7254 2.30083C5.3038 3.73806 4.49937 5.67343 4.48338 7.69489C4.48338 9.39906 7.18078 14.8461 9.27178 18.819H7.67216C7.60852 18.8177 7.54525 18.8291 7.48603 18.8524C7.4268 18.8757 7.3728 18.9106 7.32714 18.9549L0.249102 25.2279C0.168052 25.2968 0.110418 25.3891 0.0841908 25.4921C0.057964 25.5951 0.0644439 25.7038 0.102732 25.803C0.142171 25.9012 0.209964 25.9855 0.297474 26.0451C0.384985 26.1047 0.488251 26.1368 0.594117 26.1375H23.5951C23.701 26.1368 23.8043 26.1047 23.8918 26.0451C23.9793 25.9855 24.0471 25.9012 24.0865 25.803C24.1248 25.7038 24.1313 25.5951 24.1051 25.4921C24.0788 25.3891 24.0212 25.2968 23.9402 25.2279ZM5.53934 7.69489C5.57315 5.95808 6.2718 4.30039 7.49135 3.06332C8.71091 1.82626 10.3585 1.10406 12.0946 1.0455C13.8365 1.08358 15.4949 1.79961 16.7171 3.04135C17.9393 4.28309 18.629 5.95259 18.6395 7.69489C18.6395 9.07495 16.1407 14.2502 13.7047 18.8608C13.161 19.9063 12.6069 20.9518 12.0946 21.851C11.5823 20.9205 11.0491 19.9063 10.4846 18.8713C8.04854 14.2606 5.53934 9.07495 5.53934 7.69489ZM1.97418 25.092L7.87081 19.8645H9.83635C10.725 21.5269 11.436 22.7919 11.6555 23.1788C11.6861 23.2305 11.7292 23.2737 11.781 23.3042C11.781 23.3042 11.781 23.3565 11.8437 23.367C11.9203 23.4208 12.0115 23.45 12.1051 23.4506C12.1896 23.4439 12.2716 23.4189 12.3456 23.3774C12.3456 23.3774 12.3456 23.3774 12.4083 23.3147C12.4575 23.281 12.5001 23.2385 12.5337 23.1892C12.7428 22.8024 13.4538 21.5373 14.3425 19.875H16.2766L22.1733 25.1025L1.97418 25.092Z" fill="#F39D36"/>
</svg>
