<svg width="22" height="15" viewBox="0 0 22 15" fill="none" xmlns="http://www.w3.org/2000/svg">
<path d="M10.9576 8.97986L11.0173 8.99479H11.0789C11.2966 8.99479 11.5064 8.89947 11.632 8.83248C11.752 8.76848 11.8781 8.68478 11.9773 8.59642C12.7777 8.08867 13.5755 7.57625 14.3719 7.06474C15.9832 6.02983 17.5888 4.99859 19.1984 4.017C19.2341 3.99664 19.2735 3.97457 19.3154 3.95107C19.4906 3.8529 19.7102 3.72989 19.8899 3.60345C20.0046 3.52269 20.1305 3.42232 20.232 3.30266C20.3298 3.18739 20.4496 3.00141 20.4496 2.75841C20.4496 2.51031 20.3732 2.25314 20.1774 2.05742C19.9817 1.8617 19.7246 1.7853 19.4765 1.7853C19.3868 1.7853 19.3159 1.81027 19.3017 1.81525L19.3002 1.81577C19.274 1.82483 19.2512 1.83471 19.2355 1.8418C19.2033 1.85643 19.169 1.87413 19.1368 1.89137C19.071 1.92672 18.9859 1.97556 18.8876 2.03371C18.6895 2.15083 18.4188 2.31684 18.1005 2.51514C17.4629 2.91232 16.6236 3.44591 15.7693 3.99327C14.0617 5.08732 12.2841 6.2427 11.9251 6.48204C11.7528 6.59696 11.5944 6.69775 11.4314 6.8015L11.4298 6.80252C11.3507 6.85283 11.2705 6.90385 11.188 6.95702L10.4067 6.47958C10.1212 6.28174 8.32371 5.14279 6.58294 4.05661C5.68783 3.49809 4.79873 2.94795 4.12158 2.53702C3.78344 2.33182 3.49562 2.15979 3.28549 2.03842C3.1811 1.97812 3.09155 1.92781 3.02289 1.8916C2.98936 1.87391 2.95434 1.85615 2.92204 1.84164C2.90641 1.83461 2.8839 1.82493 2.8583 1.81605C2.85797 1.81594 2.85752 1.81578 2.85695 1.81557C2.84429 1.81107 2.77195 1.7853 2.68127 1.7853C2.43317 1.7853 2.176 1.8617 1.98028 2.05742C1.78456 2.25314 1.70817 2.51031 1.70817 2.75841C1.70817 3.06081 1.83731 3.29457 2.01228 3.45364C2.14677 3.5759 2.29834 3.64566 2.40947 3.68673C3.00018 4.03877 4.56806 5.02825 6.19915 6.05762C6.46004 6.22226 6.72255 6.38793 6.98293 6.55217C7.94378 7.15825 8.87292 7.74313 9.57687 8.18032C9.92856 8.39874 10.2261 8.58155 10.444 8.7121C10.5525 8.77712 10.6443 8.83101 10.7144 8.87038C10.7491 8.88985 10.7825 8.908 10.8118 8.92286C10.8124 8.92316 10.8132 8.92355 10.8141 8.92402C10.8298 8.93206 10.8905 8.96309 10.9576 8.97986ZM0.993164 13.8172V1.75306C0.993164 1.49083 1.07001 1.28329 1.17691 1.15172C1.2757 1.03014 1.41494 0.952026 1.61679 0.952026H20.4227C20.6245 0.952026 20.7638 1.03014 20.8625 1.15172C20.9694 1.28329 21.0463 1.49083 21.0463 1.75306V13.8172C21.0463 14.2258 20.764 14.5 20.4227 14.5H1.61679C1.27546 14.5 0.993164 14.2258 0.993164 13.8172Z" stroke="#F39D36"/>
</svg>
